# xmcd CD database file
#
# Track frame offsets:
#	150
#	11762
#	26706
#	41201
#	55432
#	70097
#	83892
#	95209
#	109017
#	124306
#
# Disc length: 1854 seconds
#
# Revision: 0
# Processed by: cddbd v1.5.1PL0 Copyright (c) Steve Scherf et al.
# Submitted via: CDex 1.51
#
DISCID=8e073c0a
DTITLE=Various Artist - Sirens Of Swing, Great Songs Of The '30s And '40s [CD2]
DYEAR=1900
DGENRE=Jazz
TTITLE0=Pearl Bailey With Cootie Williams And His Orch - Tess' Torch Song (I Had A Man)
TTITLE1=Billie Holiday With Camarata's Orch - Lover Man (Oh Where Can You Be)
TTITLE2=Sarah Vaughan With Ted Dale's Orch - The One I Love Belongs To Somebody Else
TTITLE3=Peggy Lee With Benny Goodman And His Orch - My Old Flame
TTITLE4=Kitty Kallen With Harry James And His Orch - I'm Beginning To See The Light
TTITLE5=Jo Stafford With Paul Weston's Orch - I Remember You
TTITLE6=Ella Fitzgerald And Her Orchestra - Baby Won't You Please Come Home
TTITLE7=Dinah Washington With Chubby Jackson's Orch - Stairway To The Stars
TTITLE8=Lena Horne With Horace Henderson's Orch - One For My Baby
TTITLE9=Doris Day With Les Brown And His Orch - My Dreams Are Getting Better All The Time
EXTD=
EXTT0=
EXTT1=
EXTT2=
EXTT3=
EXTT4=
EXTT5=
EXTT6=
EXTT7=
EXTT8=
EXTT9=
PLAYORDER=
